<svg width="16" height="22"  viewBox="0 0 16 22" fill="none" xmlns="http://www.w3.org/2000/svg">
<path  d="M4.45476 12.418C4.34339 12.418 1.89327 12.418 0.779583 12.418C0.185615 12.418 0 12.2528 0 11.8398C0 10.7384 0 9.60951 0 8.50813C0 8.06758 0.222738 7.92991 0.779583 7.92991H4.45476C4.45476 7.84731 4.45476 6.25031 4.45476 5.50688C4.45476 4.40551 4.71462 3.3592 5.45708 2.39549C6.23666 1.40425 7.35035 0.743429 8.76102 0.357947C9.6891 0.110137 10.6172 0 11.6195 0H15.2575C15.7773 0 16 0.165207 16 0.550688V3.68961C16 4.07509 15.7773 4.2403 15.2575 4.2403C14.2552 4.2403 13.2529 4.2403 12.2506 4.26783C11.2483 4.26783 10.7285 4.62578 10.7285 5.39675C10.6914 6.22278 10.7285 7.02128 10.7285 7.87484H15.0348C15.6288 7.87484 15.8515 8.04005 15.8515 8.4806V11.8123C15.8515 12.2528 15.6659 12.3905 15.0348 12.3905C13.6984 12.3905 10.8399 12.3905 10.7285 12.3905V21.3667C10.7285 21.8348 10.5429 22 9.87471 22C8.31555 22 6.7935 22 5.23434 22C4.67749 22 4.45476 21.8348 4.45476 21.4218C4.45476 18.5307 4.45476 12.5006 4.45476 12.418Z" fill="white"/>
</svg>
