<svg width="30" height="22" viewBox="0 0 30 22" fill="none" xmlns="http://www.w3.org/2000/svg">
<path d="M2.25 22C1.65 22 1.125 21.7937 0.675 21.3812C0.225 20.9687 0 20.4875 0 19.9375V2.0625C0 1.5125 0.225 1.03125 0.675 0.61875C1.125 0.20625 1.65 0 2.25 0H27.75C28.35 0 28.875 0.20625 29.325 0.61875C29.775 1.03125 30 1.5125 30 2.0625V19.9375C30 20.4875 29.775 20.9687 29.325 21.3812C28.875 21.7937 28.35 22 27.75 22H2.25ZM15 11.6187L2.25 3.95312V19.9375H27.75V3.95312L15 11.6187ZM15 11.6187L27.6 2.0625H2.4375L15 11.6187ZM2.25 3.95312V2.0625V19.9375V3.95312Z" fill="white"/>
</svg>
